<?xml version="1.0" encoding="UTF-8" standalone="no"?>
<!DOCTYPE svg PUBLIC "-//W3C//DTD SVG 1.1//EN"
 "http://www.w3.org/Graphics/SVG/1.1/DTD/svg11.dtd">
<!-- Generated by graphviz version 2.28.0 (20130927.2339)
 -->
<!-- Title: _anonymous_0 Pages: 1 -->
<svg width="100pt" height="206pt"
 viewBox="0.00 0.00 100.00 206.00" xmlns="http://www.w3.org/2000/svg" xmlns:xlink="http://www.w3.org/1999/xlink">
<g id="graph1" class="graph" transform="scale(1 1) rotate(0) translate(4 202)">
<title>_anonymous_0</title>
<polygon fill="white" stroke="white" points="-4,5 -4,-202 97,-202 97,5 -4,5"/>
<!-- 0 -->
<g id="node1" class="node"><title>0</title>
</g>
<!-- 1 -->
<g id="node2" class="node"><title>1</title>
<polyline fill="none" stroke="black" points="61,-124 31,-124 "/>
<path fill="none" stroke="black" d="M31,-124C25,-124 19,-118 19,-112"/>
<polyline fill="none" stroke="black" points="19,-112 19,-100 "/>
<path fill="none" stroke="black" d="M19,-100C19,-94 25,-88 31,-88"/>
<polyline fill="none" stroke="black" points="31,-88 61,-88 "/>
<path fill="none" stroke="black" d="M61,-88C67,-88 73,-94 73,-100"/>
<polyline fill="none" stroke="black" points="73,-100 73,-112 "/>
<path fill="none" stroke="black" d="M73,-112C73,-118 67,-124 61,-124"/>
<text text-anchor="middle" x="46" y="-102.3" font-family="Times,serif" font-size="14.00">P</text>
</g>
<!-- 0&#45;&gt;1 -->
<g id="edge4" class="edge"><title>0&#45;&gt;1</title>
<path fill="none" stroke="black" d="M46,-161.937C46,-153.807 46,-143.876 46,-134.705"/>
<polygon fill="black" stroke="black" points="49.5001,-134.441 46,-124.441 42.5001,-134.441 49.5001,-134.441"/>
</g>
<!-- 2 -->
<g id="node3" class="node"><title>2</title>
<polyline fill="none" stroke="black" points="80,-36 12,-36 "/>
<path fill="none" stroke="black" d="M12,-36C6,-36 0,-30 0,-24"/>
<polyline fill="none" stroke="black" points="0,-24 0,-12 "/>
<path fill="none" stroke="black" d="M0,-12C0,-6 6,-0 12,-0"/>
<polyline fill="none" stroke="black" points="12,-0 80,-0 "/>
<path fill="none" stroke="black" d="M80,-0C86,-0 92,-6 92,-12"/>
<polyline fill="none" stroke="black" points="92,-12 92,-24 "/>
<path fill="none" stroke="black" d="M92,-24C92,-30 86,-36 80,-36"/>
<text text-anchor="middle" x="46" y="-14.3" font-family="Times,serif" font-size="14.00">a!.A | A \ {a}</text>
</g>
<!-- 1&#45;&gt;2 -->
<g id="edge2" class="edge"><title>1&#45;&gt;2</title>
<path fill="none" stroke="black" d="M46,-87.5966C46,-75.7459 46,-59.8169 46,-46.2917"/>
<polygon fill="black" stroke="black" points="49.5001,-46.084 46,-36.084 42.5001,-46.084 49.5001,-46.084"/>
<text text-anchor="middle" x="52.5" y="-58.3" font-family="Times,serif" font-size="14.00">b?</text>
</g>
</g>
</svg>
