<?xml version="1.0" encoding="UTF-8" standalone="no"?>
<!DOCTYPE svg PUBLIC "-//W3C//DTD SVG 1.1//EN"
 "http://www.w3.org/Graphics/SVG/1.1/DTD/svg11.dtd">
<!-- Generated by graphviz version 2.28.0 (20130927.2339)
 -->
<!-- Title: _anonymous_0 Pages: 1 -->
<svg width="467pt" height="382pt"
 viewBox="0.00 0.00 466.70 382.00" xmlns="http://www.w3.org/2000/svg" xmlns:xlink="http://www.w3.org/1999/xlink">
<g id="graph1" class="graph" transform="scale(1 1) rotate(0) translate(4 378)">
<title>_anonymous_0</title>
<polygon fill="white" stroke="white" points="-4,5 -4,-378 463.704,-378 463.704,5 -4,5"/>
<!-- 0 -->
<g id="node1" class="node"><title>0</title>
</g>
<!-- 1 -->
<g id="node2" class="node"><title>1</title>
<polyline fill="none" stroke="black" points="232.704,-300 202.704,-300 "/>
<path fill="none" stroke="black" d="M202.704,-300C196.704,-300 190.704,-294 190.704,-288"/>
<polyline fill="none" stroke="black" points="190.704,-288 190.704,-276 "/>
<path fill="none" stroke="black" d="M190.704,-276C190.704,-270 196.704,-264 202.704,-264"/>
<polyline fill="none" stroke="black" points="202.704,-264 232.704,-264 "/>
<path fill="none" stroke="black" d="M232.704,-264C238.704,-264 244.704,-270 244.704,-276"/>
<polyline fill="none" stroke="black" points="244.704,-276 244.704,-288 "/>
<path fill="none" stroke="black" d="M244.704,-288C244.704,-294 238.704,-300 232.704,-300"/>
<text text-anchor="middle" x="217.704" y="-278.3" font-family="Times,serif" font-size="14.00">X</text>
</g>
<!-- 0&#45;&gt;1 -->
<g id="edge42" class="edge"><title>0&#45;&gt;1</title>
<path fill="none" stroke="black" d="M217.704,-337.937C217.704,-329.807 217.704,-319.876 217.704,-310.705"/>
<polygon fill="black" stroke="black" points="221.204,-310.441 217.704,-300.441 214.204,-310.441 221.204,-310.441"/>
</g>
<!-- 2 -->
<g id="node3" class="node"><title>2</title>
<polyline fill="none" stroke="black" points="86.7039,-124 38.7039,-124 "/>
<path fill="none" stroke="black" d="M38.7039,-124C32.7039,-124 26.7039,-118 26.7039,-112"/>
<polyline fill="none" stroke="black" points="26.7039,-112 26.7039,-100 "/>
<path fill="none" stroke="black" d="M26.7039,-100C26.7039,-94 32.7039,-88 38.7039,-88"/>
<polyline fill="none" stroke="black" points="38.7039,-88 86.7039,-88 "/>
<path fill="none" stroke="black" d="M86.7039,-88C92.7039,-88 98.7039,-94 98.7039,-100"/>
<polyline fill="none" stroke="black" points="98.7039,-100 98.7039,-112 "/>
<path fill="none" stroke="black" d="M98.7039,-112C98.7039,-118 92.7039,-124 86.7039,-124"/>
<text text-anchor="middle" x="62.7039" y="-102.3" font-family="Times,serif" font-size="14.00">0 | 0 | b!.0</text>
</g>
<!-- 1&#45;&gt;2 -->
<g id="edge4" class="edge"><title>1&#45;&gt;2</title>
<path fill="none" stroke="black" d="M190.697,-281.413C144.094,-280.477 49.4637,-270.971 6.70394,-212 -12.0371,-186.154 12.2527,-153.251 34.452,-131.229"/>
<polygon fill="black" stroke="black" points="37.0034,-133.633 41.8352,-124.204 32.178,-128.562 37.0034,-133.633"/>
<text text-anchor="middle" x="14.7039" y="-190.3" font-family="Times,serif" font-size="14.00">[a]</text>
</g>
<!-- 4 -->
<g id="node7" class="node"><title>4</title>
<polyline fill="none" stroke="black" points="358.954,-124 310.454,-124 "/>
<path fill="none" stroke="black" d="M310.454,-124C304.454,-124 298.454,-118 298.454,-112"/>
<polyline fill="none" stroke="black" points="298.454,-112 298.454,-100 "/>
<path fill="none" stroke="black" d="M298.454,-100C298.454,-94 304.454,-88 310.454,-88"/>
<polyline fill="none" stroke="black" points="310.454,-88 358.954,-88 "/>
<path fill="none" stroke="black" d="M358.954,-88C364.954,-88 370.954,-94 370.954,-100"/>
<polyline fill="none" stroke="black" points="370.954,-100 370.954,-112 "/>
<path fill="none" stroke="black" d="M370.954,-112C370.954,-118 364.954,-124 358.954,-124"/>
<text text-anchor="middle" x="334.704" y="-102.3" font-family="Times,serif" font-size="14.00">0 | a?.0 | 0</text>
</g>
<!-- 1&#45;&gt;4 -->
<g id="edge8" class="edge"><title>1&#45;&gt;4</title>
<path fill="none" stroke="black" d="M231.475,-263.788C242.271,-250.049 257.463,-230.16 269.704,-212 289.983,-181.915 292.404,-172.722 311.704,-142 313.579,-139.016 315.568,-135.907 317.561,-132.828"/>
<polygon fill="black" stroke="black" points="320.557,-134.642 323.097,-124.356 314.697,-130.812 320.557,-134.642"/>
<text text-anchor="middle" x="300.204" y="-190.3" font-family="Times,serif" font-size="14.00">[b]</text>
</g>
<!-- 5 -->
<g id="node10" class="node"><title>5</title>
<polyline fill="none" stroke="black" points="248.954,-212 186.454,-212 "/>
<path fill="none" stroke="black" d="M186.454,-212C180.454,-212 174.454,-206 174.454,-200"/>
<polyline fill="none" stroke="black" points="174.454,-200 174.454,-188 "/>
<path fill="none" stroke="black" d="M174.454,-188C174.454,-182 180.454,-176 186.454,-176"/>
<polyline fill="none" stroke="black" points="186.454,-176 248.954,-176 "/>
<path fill="none" stroke="black" d="M248.954,-176C254.954,-176 260.954,-182 260.954,-188"/>
<polyline fill="none" stroke="black" points="260.954,-188 260.954,-200 "/>
<path fill="none" stroke="black" d="M260.954,-200C260.954,-206 254.954,-212 248.954,-212"/>
<text text-anchor="middle" x="217.704" y="-190.3" font-family="Times,serif" font-size="14.00">0 | a?.0 | b!.0</text>
</g>
<!-- 1&#45;&gt;5 -->
<g id="edge14" class="edge"><title>1&#45;&gt;5</title>
<path fill="none" stroke="black" d="M208.028,-263.706C205.446,-258.215 203.012,-252.006 201.704,-246 200.191,-239.052 200.191,-236.948 201.704,-230 202.296,-227.279 203.12,-224.515 204.084,-221.796"/>
<polygon fill="black" stroke="black" points="207.428,-222.871 208.028,-212.294 200.962,-220.188 207.428,-222.871"/>
<text text-anchor="middle" x="207.204" y="-234.3" font-family="Times,serif" font-size="14.00">a!</text>
</g>
<!-- 1&#45;&gt;5 -->
<g id="edge16" class="edge"><title>1&#45;&gt;5</title>
<path fill="none" stroke="black" d="M217.704,-263.597C217.704,-251.746 217.704,-235.817 217.704,-222.292"/>
<polygon fill="black" stroke="black" points="221.204,-222.084 217.704,-212.084 214.204,-222.084 221.204,-222.084"/>
<text text-anchor="middle" x="224.204" y="-234.3" font-family="Times,serif" font-size="14.00">b?</text>
</g>
<!-- 6 -->
<g id="node15" class="node"><title>6</title>
<polyline fill="none" stroke="black" points="143.204,-212 44.2039,-212 "/>
<path fill="none" stroke="black" d="M44.2039,-212C38.2039,-212 32.2039,-206 32.2039,-200"/>
<polyline fill="none" stroke="black" points="32.2039,-200 32.2039,-188 "/>
<path fill="none" stroke="black" d="M32.2039,-188C32.2039,-182 38.2039,-176 44.2039,-176"/>
<polyline fill="none" stroke="black" points="44.2039,-176 143.204,-176 "/>
<path fill="none" stroke="black" d="M143.204,-176C149.204,-176 155.204,-182 155.204,-188"/>
<polyline fill="none" stroke="black" points="155.204,-188 155.204,-200 "/>
<path fill="none" stroke="black" d="M155.204,-200C155.204,-206 149.204,-212 143.204,-212"/>
<text text-anchor="middle" x="93.7039" y="-190.3" font-family="Times,serif" font-size="14.00">a!.0 + b?.0 | 0 | b!.0</text>
</g>
<!-- 1&#45;&gt;6 -->
<g id="edge30" class="edge"><title>1&#45;&gt;6</title>
<path fill="none" stroke="black" d="M192.909,-263.803C173.901,-250.62 147.489,-232.302 126.696,-217.882"/>
<polygon fill="black" stroke="black" points="128.668,-214.99 118.456,-212.167 124.679,-220.742 128.668,-214.99"/>
<text text-anchor="middle" x="174.204" y="-234.3" font-family="Times,serif" font-size="14.00">a?</text>
</g>
<!-- 8 -->
<g id="node24" class="node"><title>8</title>
<polyline fill="none" stroke="black" points="445.954,-212 345.454,-212 "/>
<path fill="none" stroke="black" d="M345.454,-212C339.454,-212 333.454,-206 333.454,-200"/>
<polyline fill="none" stroke="black" points="333.454,-200 333.454,-188 "/>
<path fill="none" stroke="black" d="M333.454,-188C333.454,-182 339.454,-176 345.454,-176"/>
<polyline fill="none" stroke="black" points="345.454,-176 445.954,-176 "/>
<path fill="none" stroke="black" d="M445.954,-176C451.954,-176 457.954,-182 457.954,-188"/>
<polyline fill="none" stroke="black" points="457.954,-188 457.954,-200 "/>
<path fill="none" stroke="black" d="M457.954,-200C457.954,-206 451.954,-212 445.954,-212"/>
<text text-anchor="middle" x="395.704" y="-190.3" font-family="Times,serif" font-size="14.00">a!.0 + b?.0 | a?.0 | 0</text>
</g>
<!-- 1&#45;&gt;8 -->
<g id="edge40" class="edge"><title>1&#45;&gt;8</title>
<path fill="none" stroke="black" d="M245.009,-272.362C264.079,-265.963 289.919,-256.551 311.704,-246 328.775,-237.732 346.862,-227.026 361.862,-217.559"/>
<polygon fill="black" stroke="black" points="363.769,-220.494 370.307,-212.157 359.997,-214.598 363.769,-220.494"/>
<text text-anchor="middle" x="346.704" y="-234.3" font-family="Times,serif" font-size="14.00">b!</text>
</g>
<!-- 3 -->
<g id="node4" class="node"><title>3</title>
<polyline fill="none" stroke="black" points="241.204,-36 208.204,-36 "/>
<path fill="none" stroke="black" d="M208.204,-36C202.204,-36 196.204,-30 196.204,-24"/>
<polyline fill="none" stroke="black" points="196.204,-24 196.204,-12 "/>
<path fill="none" stroke="black" d="M196.204,-12C196.204,-6 202.204,-0 208.204,-0"/>
<polyline fill="none" stroke="black" points="208.204,-0 241.204,-0 "/>
<path fill="none" stroke="black" d="M241.204,-0C247.204,-0 253.204,-6 253.204,-12"/>
<polyline fill="none" stroke="black" points="253.204,-12 253.204,-24 "/>
<path fill="none" stroke="black" d="M253.204,-24C253.204,-30 247.204,-36 241.204,-36"/>
<text text-anchor="middle" x="224.704" y="-14.3" font-family="Times,serif" font-size="14.00">0 | 0 | 0</text>
</g>
<!-- 2&#45;&gt;3 -->
<g id="edge2" class="edge"><title>2&#45;&gt;3</title>
<path fill="none" stroke="black" d="M74.5222,-87.6105C82.8812,-76.5329 95.0076,-62.682 108.704,-54 132.228,-39.0881 162.449,-30.2386 186.147,-25.1695"/>
<polygon fill="black" stroke="black" points="187.077,-28.553 196.196,-23.1601 185.704,-21.6889 187.077,-28.553"/>
<text text-anchor="middle" x="114.704" y="-58.3" font-family="Times,serif" font-size="14.00">b!</text>
</g>
<!-- 4&#45;&gt;3 -->
<g id="edge6" class="edge"><title>4&#45;&gt;3</title>
<path fill="none" stroke="black" d="M312.708,-87.8033C296.071,-74.796 273.04,-56.79 254.712,-42.4607"/>
<polygon fill="black" stroke="black" points="256.695,-39.5688 246.662,-36.1669 252.384,-45.0835 256.695,-39.5688"/>
<text text-anchor="middle" x="296.204" y="-58.3" font-family="Times,serif" font-size="14.00">a?</text>
</g>
<!-- 5&#45;&gt;2 -->
<g id="edge10" class="edge"><title>5&#45;&gt;2</title>
<path fill="none" stroke="black" d="M212.069,-175.855C207.5,-164.591 199.952,-150.43 188.704,-142 160.927,-121.182 146.063,-133.598 112.704,-124 111.3,-123.596 109.876,-123.176 108.442,-122.745"/>
<polygon fill="black" stroke="black" points="109.486,-119.404 98.8967,-119.758 107.395,-126.084 109.486,-119.404"/>
<text text-anchor="middle" x="209.204" y="-146.3" font-family="Times,serif" font-size="14.00">a?</text>
</g>
<!-- 5&#45;&gt;4 -->
<g id="edge12" class="edge"><title>5&#45;&gt;4</title>
<path fill="none" stroke="black" d="M233.772,-175.772C244.042,-165.3 257.97,-152.055 271.704,-142 277.812,-137.528 284.551,-133.215 291.283,-129.236"/>
<polygon fill="black" stroke="black" points="293.448,-132.03 300.397,-124.033 289.977,-125.951 293.448,-132.03"/>
<text text-anchor="middle" x="277.704" y="-146.3" font-family="Times,serif" font-size="14.00">b!</text>
</g>
<!-- 6&#45;&gt;2 -->
<g id="edge22" class="edge"><title>6&#45;&gt;2</title>
<path fill="none" stroke="black" d="M87.4306,-175.597C83.1165,-163.629 77.3032,-147.501 72.3971,-133.891"/>
<polygon fill="black" stroke="black" points="75.5459,-132.305 68.8621,-124.084 68.9606,-134.678 75.5459,-132.305"/>
<text text-anchor="middle" x="88.2039" y="-146.3" font-family="Times,serif" font-size="14.00">b?</text>
</g>
<!-- 6&#45;&gt;2 -->
<g id="edge20" class="edge"><title>6&#45;&gt;2</title>
<path fill="none" stroke="black" d="M74.1231,-175.831C69.4895,-170.619 65.179,-164.527 62.7039,-158 59.8982,-150.601 59.0516,-142.152 59.1381,-134.288"/>
<polygon fill="black" stroke="black" points="62.6452,-134.269 59.7381,-124.081 55.6572,-133.858 62.6452,-134.269"/>
<text text-anchor="middle" x="68.2039" y="-146.3" font-family="Times,serif" font-size="14.00">a!</text>
</g>
<!-- 6&#45;&gt;3 -->
<g id="edge18" class="edge"><title>6&#45;&gt;3</title>
<path fill="none" stroke="black" d="M99.3551,-175.782C107.076,-153.916 122.431,-115.705 143.704,-88 157.117,-70.5321 175.604,-54.3693 191.53,-42.0845"/>
<polygon fill="black" stroke="black" points="193.696,-44.835 199.584,-36.0274 189.489,-39.2404 193.696,-44.835"/>
<text text-anchor="middle" x="152.204" y="-102.3" font-family="Times,serif" font-size="14.00">[b]</text>
</g>
<!-- 7 -->
<g id="node19" class="node"><title>7</title>
<polyline fill="none" stroke="black" points="267.704,-124 181.704,-124 "/>
<path fill="none" stroke="black" d="M181.704,-124C175.704,-124 169.704,-118 169.704,-112"/>
<polyline fill="none" stroke="black" points="169.704,-112 169.704,-100 "/>
<path fill="none" stroke="black" d="M169.704,-100C169.704,-94 175.704,-88 181.704,-88"/>
<polyline fill="none" stroke="black" points="181.704,-88 267.704,-88 "/>
<path fill="none" stroke="black" d="M267.704,-88C273.704,-88 279.704,-94 279.704,-100"/>
<polyline fill="none" stroke="black" points="279.704,-100 279.704,-112 "/>
<path fill="none" stroke="black" d="M279.704,-112C279.704,-118 273.704,-124 267.704,-124"/>
<text text-anchor="middle" x="224.704" y="-102.3" font-family="Times,serif" font-size="14.00">a!.0 + b?.0 | 0 | 0</text>
</g>
<!-- 6&#45;&gt;7 -->
<g id="edge28" class="edge"><title>6&#45;&gt;7</title>
<path fill="none" stroke="black" d="M120.924,-175.862C129.809,-170.219 139.704,-163.882 148.704,-158 162.67,-148.872 177.965,-138.652 191.149,-129.772"/>
<polygon fill="black" stroke="black" points="193.142,-132.65 199.473,-124.155 189.226,-126.847 193.142,-132.65"/>
<text text-anchor="middle" x="178.704" y="-146.3" font-family="Times,serif" font-size="14.00">b!</text>
</g>
<!-- 7&#45;&gt;3 -->
<g id="edge24" class="edge"><title>7&#45;&gt;3</title>
<path fill="none" stroke="black" d="M224.704,-87.5966C224.704,-75.7459 224.704,-59.8169 224.704,-46.2917"/>
<polygon fill="black" stroke="black" points="228.204,-46.084 224.704,-36.084 221.204,-46.084 228.204,-46.084"/>
<text text-anchor="middle" x="230.204" y="-58.3" font-family="Times,serif" font-size="14.00">a!</text>
</g>
<!-- 7&#45;&gt;3 -->
<g id="edge26" class="edge"><title>7&#45;&gt;3</title>
<path fill="none" stroke="black" d="M214.428,-87.7688C211.684,-82.2804 209.097,-76.0567 207.704,-70 206.11,-63.0698 206.11,-60.9302 207.704,-54 208.357,-51.1609 209.272,-48.2852 210.343,-45.4656"/>
<polygon fill="black" stroke="black" points="213.583,-46.7923 214.428,-36.2312 207.182,-43.9608 213.583,-46.7923"/>
<text text-anchor="middle" x="214.204" y="-58.3" font-family="Times,serif" font-size="14.00">b?</text>
</g>
<!-- 8&#45;&gt;3 -->
<g id="edge32" class="edge"><title>8&#45;&gt;3</title>
<path fill="none" stroke="black" d="M401.065,-175.72C402.554,-170.124 403.964,-163.851 404.704,-158 408.85,-125.226 403.037,-111.387 379.704,-88 347.514,-55.7362 297.614,-37.2672 263.171,-27.7038"/>
<polygon fill="black" stroke="black" points="264.017,-24.3075 253.454,-25.1274 262.223,-31.0736 264.017,-24.3075"/>
<text text-anchor="middle" x="412.704" y="-102.3" font-family="Times,serif" font-size="14.00">[a]</text>
</g>
<!-- 8&#45;&gt;4 -->
<g id="edge34" class="edge"><title>8&#45;&gt;4</title>
<path fill="none" stroke="black" d="M381.395,-175.82C376.892,-170.229 371.981,-163.934 367.704,-158 361.908,-149.958 355.919,-140.946 350.66,-132.76"/>
<polygon fill="black" stroke="black" points="353.597,-130.856 345.284,-124.287 347.686,-134.606 353.597,-130.856"/>
<text text-anchor="middle" x="373.204" y="-146.3" font-family="Times,serif" font-size="14.00">a!</text>
</g>
<!-- 8&#45;&gt;4 -->
<g id="edge36" class="edge"><title>8&#45;&gt;4</title>
<path fill="none" stroke="black" d="M392.572,-175.801C390.064,-165.34 385.764,-152.096 378.704,-142 375.914,-138.011 372.541,-134.247 368.918,-130.773"/>
<polygon fill="black" stroke="black" points="371.073,-128.008 361.237,-124.069 366.469,-133.282 371.073,-128.008"/>
<text text-anchor="middle" x="394.204" y="-146.3" font-family="Times,serif" font-size="14.00">b?</text>
</g>
<!-- 8&#45;&gt;7 -->
<g id="edge38" class="edge"><title>8&#45;&gt;7</title>
<path fill="none" stroke="black" d="M361.511,-175.803C334.511,-162.224 296.679,-143.198 267.641,-128.594"/>
<polygon fill="black" stroke="black" points="269.053,-125.386 258.546,-124.02 265.908,-131.64 269.053,-125.386"/>
<text text-anchor="middle" x="332.204" y="-146.3" font-family="Times,serif" font-size="14.00">a?</text>
</g>
</g>
</svg>
